<?xml version="1.0" encoding="utf-8"?>
<!-- Generator: Adobe Illustrator 24.0.1, SVG Export Plug-In . SVG Version: 6.00 Build 0)  -->
<svg version="1.1" id="Capa_1" xmlns="http://www.w3.org/2000/svg" xmlns:xlink="http://www.w3.org/1999/xlink" x="0px" y="0px"
	 viewBox="0 0 20 20" style="enable-background:new 0 0 20 20;" xml:space="preserve">
<style type="text/css">
	.st0{fill:#0F4D80;}
	.st1{fill:none;}
	.st2{fill:#FFFFFF;}
	.st3{fill:url(#SVGID_1_);}
</style>
<g>
	<g>
		<path class="st0" d="M17.7,20c1.3,0,2.3-1,2.3-2.3V2.3C20,1,19,0,17.8,0H2.3C1,0,0,1,0,2.3v15.5C0,19,1,20,2.3,20H17.7z"/>
	</g>
	<g>
		<path class="st1" d="M8.1,9.9C8.1,9.9,8.1,9.9,8.1,9.9C8.1,9.9,8.1,9.9,8.1,9.9z"/>
		<path class="st1" d="M11.2,9.9C11.2,9.9,11.2,9.9,11.2,9.9C11.2,9.9,11.2,9.9,11.2,9.9z"/>
		<path class="st1" d="M8.2,9.8C8.2,9.8,8.2,9.8,8.2,9.8C8.2,9.8,8.2,9.8,8.2,9.8z"/>
		<path class="st1" d="M11.3,10C11.3,10,11.3,10,11.3,10C11.3,10,11.3,10,11.3,10z"/>
		<path class="st1" d="M11.3,10.1C11.3,10.1,11.3,10.1,11.3,10.1C11.3,10.1,11.3,10.1,11.3,10.1z"/>
		<path class="st1" d="M8.1,10.1C8.1,10.1,8.1,10.1,8.1,10.1C8.1,10.1,8.1,10.1,8.1,10.1z"/>
		<path class="st1" d="M8,10.5C8,10.4,8,10.4,8,10.5C8,10.4,8,10.4,8,10.5z"/>
		<path class="st1" d="M8,10.3C8,10.3,8,10.3,8,10.3C8,10.3,8,10.3,8,10.3z"/>
		<path class="st1" d="M8.1,10C8.1,10,8.1,10,8.1,10C8.1,10,8.1,10,8.1,10z"/>
		<path class="st1" d="M8,10.2C8,10.2,8,10.2,8,10.2C8,10.2,8,10.2,8,10.2z"/>
		<path class="st1" d="M11.4,10.3C11.4,10.3,11.4,10.3,11.4,10.3C11.4,10.3,11.4,10.3,11.4,10.3z"/>
		<path class="st1" d="M11.3,10.2C11.3,10.2,11.3,10.2,11.3,10.2C11.3,10.2,11.3,10.2,11.3,10.2z"/>
		<path class="st1" d="M11.4,10.6v7.1c0,0.1,0,0.1-0.1,0.2c0.1-0.1,0.1-0.1,0.1-0.2L11.4,10.6C11.4,10.6,11.4,10.6,11.4,10.6
			C11.4,10.6,11.4,10.6,11.4,10.6z"/>
		<path class="st1" d="M9.7,4.4C9.1,4.4,8.6,4.6,8.2,5C7.4,5.8,7.4,7.1,8.1,7.9C8.6,7.7,9,7.6,9.6,7.6h0.3c0.5,0,1,0.1,1.4,0.4
			C12,7.1,12,5.8,11.2,5C10.8,4.6,10.2,4.4,9.7,4.4z"/>
		<path class="st1" d="M11.4,10.4C11.4,10.4,11.4,10.5,11.4,10.4C11.4,10.5,11.4,10.4,11.4,10.4z"/>
		<path class="st2" d="M13.2,6.5c0-0.9-0.4-1.8-1-2.4c-0.6-0.6-1.5-1-2.5-1C8.8,3,7.9,3.4,7.2,4c-0.6,0.6-1,1.5-1,2.4
			c0,0.9,0.3,1.8,0.9,2.4c-0.3,0.5-0.5,1.1-0.5,1.7v7.1c0,0.9,0.8,1.7,1.7,1.7h2.8c0.9,0,1.7-0.8,1.7-1.7v-7.1
			c0-0.6-0.2-1.2-0.5-1.7C12.9,8.3,13.2,7.4,13.2,6.5z M11.4,17.7c0,0.1,0,0.1-0.1,0.2c-0.1,0.1-0.1,0.1-0.2,0.1H8.3
			c-0.1,0-0.2,0-0.2-0.1c0,0,0-0.1,0-0.2v-7.1c0,0,0-0.1,0-0.1c0,0,0,0,0,0c0,0,0-0.1,0-0.1c0,0,0,0,0,0c0,0,0-0.1,0-0.1
			c0,0,0,0,0,0c0,0,0-0.1,0-0.1c0,0,0,0,0,0c0,0,0-0.1,0-0.1c0,0,0,0,0,0c0,0,0-0.1,0-0.1c0,0,0,0,0,0c0,0,0-0.1,0.1-0.1
			c0,0,0,0,0,0C8.5,9.3,9,9,9.6,9h0.3c0.6,0,1.2,0.4,1.4,0.9c0,0,0,0,0,0c0,0,0,0.1,0,0.1c0,0,0,0,0,0c0,0,0,0.1,0,0.1c0,0,0,0,0,0
			c0,0,0,0.1,0,0.1c0,0,0,0,0,0c0,0,0,0.1,0,0.1c0,0,0,0,0,0c0,0,0,0.1,0,0.1c0,0,0,0,0,0c0,0,0,0.1,0,0.1c0,0,0,0,0,0V17.7z
			 M11.2,7.9c-0.4-0.2-0.9-0.4-1.4-0.4H9.6c-0.5,0-1,0.1-1.4,0.4C7.4,7.1,7.4,5.8,8.2,5c0.4-0.4,0.9-0.6,1.5-0.6
			c0.5,0,1.1,0.2,1.5,0.6C12,5.8,12,7.1,11.2,7.9z"/>
		<g>
			<path class="st0" d="M8.1,10.1c0,0,0-0.1,0-0.1C8.1,10,8.1,10.1,8.1,10.1z"/>
		</g>
		<g>
			<path class="st0" d="M8.1,10C8.1,10,8.1,9.9,8.1,10C8.1,9.9,8.1,10,8.1,10z"/>
		</g>
		<g>
			<path class="st0" d="M8,10.4C8,10.4,8,10.4,8,10.4C8,10.4,8,10.4,8,10.4z"/>
		</g>
		<g>
			<path class="st0" d="M11.3,10.2c0,0,0,0.1,0,0.1C11.4,10.3,11.3,10.3,11.3,10.2z"/>
		</g>
		<g>
			<path class="st0" d="M8,10.3c0,0,0-0.1,0-0.1C8,10.3,8,10.3,8,10.3z"/>
		</g>
		<g>
			<path class="st0" d="M8,10.2C8,10.2,8,10.1,8,10.2C8,10.1,8,10.2,8,10.2z"/>
		</g>
		<g>
			<path class="st0" d="M11.3,10c0,0,0,0.1,0,0.1C11.3,10.1,11.3,10,11.3,10z"/>
		</g>
		<g>
			<path class="st0" d="M11.3,10.1C11.3,10.1,11.3,10.2,11.3,10.1C11.3,10.2,11.3,10.1,11.3,10.1z"/>
		</g>
		<g>
			<path class="st0" d="M11.4,10.5c0,0,0,0.1,0,0.1C11.4,10.5,11.4,10.5,11.4,10.5z"/>
		</g>
		<g>
			<path class="st0" d="M11.4,10.3C11.4,10.4,11.4,10.4,11.4,10.3C11.4,10.4,11.4,10.4,11.4,10.3z"/>
		</g>
		<g>
			<path class="st0" d="M8.1,9.9C8.1,9.9,8.2,9.8,8.1,9.9C8.2,9.8,8.1,9.9,8.1,9.9z"/>
		</g>
		<g>
			<path class="st0" d="M8,10.6c0,0,0-0.1,0-0.1C8,10.5,8,10.5,8,10.6l0,7.1c0,0.1,0,0.1,0,0.2c0,0,0-0.1,0-0.2V10.6z"/>
		</g>
		<g>
			<path class="st0" d="M8.3,18c-0.1,0-0.2,0-0.2-0.1C8.1,17.9,8.2,18,8.3,18l2.8,0c0.1,0,0.1,0,0.2-0.1c-0.1,0.1-0.1,0.1-0.2,0.1
				H8.3z"/>
		</g>
		<g>
			<path class="st0" d="M11.2,9.9C11.2,9.9,11.3,10,11.2,9.9C11.3,10,11.2,9.9,11.2,9.9z"/>
		</g>
	</g>
	<g>
		<linearGradient id="SVGID_1_" gradientUnits="userSpaceOnUse" x1="9.6928" y1="8.5952" x2="9.6928" y2="4.4427">
			<stop  offset="0" style="stop-color:#0E95E8"/>
			<stop  offset="0.25" style="stop-color:#11AEF2"/>
			<stop  offset="0.5056" style="stop-color:#0EB9DC"/>
			<stop  offset="0.75" style="stop-color:#11DCF2"/>
			<stop  offset="1" style="stop-color:#0BE8E7"/>
		</linearGradient>
		<path class="st3" d="M8.2,8c-0.8-0.8-0.8-2.2,0-3c0.8-0.8,2.2-0.8,3,0c0.8,0.8,0.8,2.2,0,3C10.4,8.8,9,8.8,8.2,8z"/>
	</g>
</g>
</svg>
